<!-- Generated by IcoMoon.io -->
<svg version="1.1" xmlns="http://www.w3.org/2000/svg" width="28" height="28" viewBox="0 0 28 28">
<title>file</title>
<path d="M20.517 9.333h-4.184v-4.184zM24.158 9.675l-8.167-8.167c-0.107-0.107-0.236-0.194-0.378-0.253s-0.295-0.089-0.447-0.089h-8.167c-0.966 0-1.843 0.393-2.474 1.026s-1.026 1.508-1.026 2.474v18.667c0 0.966 0.393 1.843 1.026 2.475s1.508 1.025 2.474 1.025h14c0.966 0 1.843-0.393 2.474-1.025s1.026-1.509 1.026-2.475v-12.833c0-0.322-0.131-0.614-0.342-0.825zM14 3.5v7c0 0.644 0.523 1.167 1.167 1.167h7v11.667c0 0.322-0.13 0.612-0.342 0.825s-0.503 0.342-0.825 0.342h-14c-0.322 0-0.612-0.13-0.825-0.342s-0.342-0.503-0.342-0.825v-18.667c0-0.322 0.129-0.613 0.342-0.825s0.503-0.342 0.825-0.342z"></path>
</svg>
