<!-- Generated by IcoMoon.io -->
<svg version="1.1" xmlns="http://www.w3.org/2000/svg" width="28" height="28" viewBox="0 0 28 28">
<title>home</title>
<path d="M2.784 9.579c-0.275 0.215-0.45 0.547-0.45 0.921v12.833c0 0.966 0.393 1.843 1.026 2.475s1.508 1.025 2.474 1.025h16.333c0.966 0 1.843-0.393 2.474-1.025s1.026-1.509 1.026-2.475v-12.833c-0.001-0.35-0.156-0.692-0.45-0.921l-10.5-8.167c-0.418-0.321-1.005-0.333-1.433 0zM18.667 24.5v-10.5c0-0.644-0.523-1.167-1.167-1.167h-7c-0.644 0-1.167 0.523-1.167 1.167v10.5h-3.5c-0.322 0-0.612-0.13-0.825-0.342s-0.342-0.503-0.342-0.825v-12.263l9.333-7.259 9.333 7.259v12.263c0 0.322-0.129 0.612-0.342 0.825s-0.503 0.342-0.825 0.342zM11.667 24.5v-9.333h4.667v9.333z"></path>
</svg>
