<!-- Generated by IcoMoon.io -->
<svg version="1.1" xmlns="http://www.w3.org/2000/svg" width="28" height="28" viewBox="0 0 28 28">
<title>link</title>
<path d="M10.732 15.866c1.157 1.548 2.835 2.48 4.606 2.736s3.643-0.166 5.192-1.323c0.279-0.209 0.543-0.438 0.764-0.663l3.494-3.494c1.357-1.405 2.009-3.209 1.979-4.999s-0.745-3.571-2.136-4.913c-1.367-1.321-3.136-1.974-4.899-1.964-1.741 0.009-3.481 0.666-4.827 1.964l-2.020 2.008c-0.457 0.454-0.46 1.194-0.005 1.65s1.193 0.46 1.65 0.005l1.994-1.982c0.898-0.866 2.057-1.303 3.22-1.31 1.177-0.007 2.352 0.428 3.264 1.309 0.927 0.896 1.404 2.080 1.425 3.276s-0.414 2.396-1.295 3.309l-3.506 3.506c-0.133 0.135-0.307 0.288-0.499 0.432-1.033 0.772-2.277 1.052-3.462 0.882s-2.3-0.791-3.071-1.823c-0.386-0.516-1.116-0.622-1.633-0.236s-0.622 1.117-0.236 1.633zM17.268 12.135c-1.157-1.548-2.835-2.48-4.606-2.736s-3.645 0.166-5.193 1.323c-0.279 0.209-0.541 0.438-0.764 0.663l-3.494 3.494c-1.357 1.405-2.009 3.209-1.979 4.999s0.746 3.571 2.136 4.913c1.367 1.321 3.136 1.974 4.899 1.963 1.741-0.009 3.481-0.666 4.826-1.963l2.010-2.010c0.456-0.456 0.456-1.195 0-1.65s-1.195-0.456-1.65 0l-1.979 1.981c-0.898 0.866-2.057 1.303-3.22 1.31-1.177 0.007-2.352-0.428-3.264-1.309-0.927-0.896-1.404-2.080-1.425-3.276s0.414-2.396 1.295-3.309l3.506-3.506c0.133-0.135 0.307-0.288 0.499-0.432 1.032-0.772 2.277-1.052 3.461-0.882s2.299 0.791 3.071 1.823c0.386 0.516 1.116 0.622 1.633 0.236s0.622-1.116 0.236-1.633z"></path>
</svg>
