<!-- Generated by IcoMoon.io -->
<svg version="1.1" xmlns="http://www.w3.org/2000/svg" width="28" height="28" viewBox="0 0 28 28">
<title>message-square1</title>
<path d="M25.667 17.5v-11.667c0-0.966-0.393-1.843-1.026-2.474s-1.508-1.026-2.474-1.026h-16.333c-0.966 0-1.843 0.393-2.474 1.026s-1.026 1.508-1.026 2.474v18.667c0 0.299 0.114 0.597 0.342 0.825 0.456 0.456 1.195 0.456 1.65 0l4.325-4.325h13.517c0.966 0 1.843-0.393 2.474-1.026s1.026-1.508 1.026-2.474zM23.333 17.5c0 0.322-0.13 0.613-0.342 0.825s-0.503 0.342-0.825 0.342h-14c-0.322 0-0.614 0.131-0.825 0.342l-2.675 2.675v-15.85c0-0.322 0.129-0.612 0.342-0.825s0.503-0.342 0.825-0.342h16.333c0.322 0 0.613 0.129 0.825 0.342s0.342 0.503 0.342 0.825z"></path>
</svg>
