<!-- Generated by IcoMoon.io -->
<svg version="1.1" xmlns="http://www.w3.org/2000/svg" width="28" height="28" viewBox="0 0 28 28">
<title>more-vertical</title>
<path d="M16.333 14c0-0.644-0.263-1.229-0.684-1.65s-1.006-0.684-1.65-0.684-1.229 0.263-1.65 0.684-0.684 1.006-0.684 1.65 0.263 1.229 0.684 1.65 1.006 0.684 1.65 0.684 1.229-0.263 1.65-0.684 0.684-1.006 0.684-1.65zM16.333 5.833c0-0.644-0.263-1.228-0.684-1.65s-1.006-0.684-1.65-0.684-1.229 0.263-1.65 0.684-0.684 1.006-0.684 1.65 0.263 1.229 0.684 1.65 1.006 0.684 1.65 0.684 1.229-0.263 1.65-0.684 0.684-1.006 0.684-1.65zM16.333 22.167c0-0.644-0.263-1.228-0.684-1.65s-1.006-0.684-1.65-0.684-1.229 0.262-1.65 0.684-0.684 1.006-0.684 1.65 0.263 1.229 0.684 1.65 1.006 0.684 1.65 0.684 1.229-0.262 1.65-0.684 0.684-1.006 0.684-1.65z"></path>
</svg>
