<!-- Generated by IcoMoon.io -->
<svg version="1.1" xmlns="http://www.w3.org/2000/svg" width="28" height="28" viewBox="0 0 28 28">
<title>paperclip</title>
<path d="M24.188 12.067l-10.722 10.722c-1.14 1.14-2.632 1.709-4.128 1.709s-2.988-0.569-4.128-1.709-1.709-2.632-1.709-4.128 0.569-2.988 1.709-4.128l10.722-10.722c0.684-0.684 1.579-1.026 2.477-1.026s1.792 0.342 2.477 1.026 1.026 1.579 1.026 2.477-0.342 1.792-1.026 2.477l-10.733 10.722c-0.229 0.229-0.526 0.343-0.826 0.343s-0.597-0.114-0.826-0.342-0.342-0.525-0.342-0.826 0.114-0.597 0.342-0.826l9.905-9.893c0.456-0.455 0.456-1.193 0.001-1.65s-1.194-0.456-1.65-0.001l-9.905 9.893c-0.684 0.684-1.026 1.582-1.026 2.476s0.342 1.792 1.026 2.476 1.582 1.026 2.476 1.026 1.792-0.342 2.476-1.026l10.733-10.722c1.14-1.14 1.709-2.634 1.709-4.127s-0.571-2.988-1.709-4.127-2.634-1.709-4.127-1.709-2.988 0.571-4.127 1.709l-10.722 10.722c-1.595 1.595-2.393 3.688-2.393 5.777s0.798 4.183 2.393 5.777 3.688 2.393 5.777 2.393 4.183-0.798 5.777-2.393l10.722-10.722c0.456-0.456 0.456-1.195 0-1.65s-1.195-0.456-1.65 0z"></path>
</svg>
