<!-- Generated by IcoMoon.io -->
<svg version="1.1" xmlns="http://www.w3.org/2000/svg" width="28" height="28" viewBox="0 0 28 28">
<title>pie-chart</title>
<path d="M23.671 18.084c-1.129 2.671-3.233 4.629-5.724 5.641s-5.365 1.070-8.036-0.060-4.629-3.233-5.641-5.724-1.071-5.367 0.058-8.037c1.092-2.583 3.094-4.499 5.471-5.534 0.59-0.258 0.861-0.945 0.604-1.535s-0.945-0.861-1.535-0.604c-2.904 1.265-5.354 3.61-6.688 6.764-1.38 3.264-1.305 6.781-0.072 9.822s3.631 5.616 6.894 6.997 6.781 1.306 9.822 0.072 5.616-3.631 6.997-6.894c0.251-0.594-0.027-1.277-0.621-1.529s-1.278 0.027-1.53 0.621zM24.436 12.833h-9.269v-9.269c2.434 0.268 4.615 1.369 6.258 3.011s2.743 3.824 3.011 6.258zM26.833 14c0-3.543-1.437-6.754-3.759-9.074s-5.531-3.759-9.074-3.759c-0.644 0-1.167 0.523-1.167 1.167v11.667c0 0.644 0.523 1.167 1.167 1.167h11.667c0.644 0 1.167-0.523 1.167-1.167z"></path>
</svg>
