<!-- Generated by IcoMoon.io -->
<svg version="1.1" xmlns="http://www.w3.org/2000/svg" width="28" height="28" viewBox="0 0 28 28">
<title>search</title>
<path d="M18.715 18.499c-0.040 0.030-0.078 0.064-0.116 0.102s-0.070 0.075-0.101 0.116c-1.468 1.415-3.464 2.284-5.664 2.284-2.255 0-4.296-0.912-5.775-2.392s-2.392-3.52-2.392-5.775 0.912-4.296 2.392-5.775 3.52-2.392 5.775-2.392 4.296 0.912 5.775 2.392 2.392 3.52 2.392 5.775c0 2.2-0.869 4.197-2.286 5.665zM25.325 23.675l-4.287-4.287c1.436-1.797 2.296-4.075 2.296-6.554 0-2.899-1.176-5.525-3.075-7.425s-4.526-3.075-7.425-3.075-5.525 1.176-7.425 3.075-3.075 4.526-3.075 7.425 1.176 5.525 3.075 7.425 4.526 3.075 7.425 3.075c2.479 0 4.758-0.86 6.554-2.296l4.288 4.288c0.456 0.456 1.195 0.456 1.65 0s0.456-1.195 0-1.65z"></path>
</svg>
