<!-- Generated by IcoMoon.io -->
<svg version="1.1" xmlns="http://www.w3.org/2000/svg" width="28" height="28" viewBox="0 0 28 28">
<title>send</title>
<path d="M26.79 2.647c0.050-0.176 0.058-0.366 0.017-0.555-0.028-0.132-0.079-0.261-0.153-0.379-0.075-0.119-0.169-0.222-0.278-0.306-0.136-0.105-0.291-0.175-0.45-0.211s-0.329-0.040-0.497-0.005c-0.049 0.010-0.099 0.024-0.147 0.041l-0.024 0.008-23.31 8.159c-0.294 0.103-0.545 0.322-0.681 0.628-0.261 0.589 0.003 1.279 0.593 1.54l10.090 4.485 4.485 10.090c0.126 0.284 0.365 0.517 0.68 0.628 0.608 0.212 1.274-0.107 1.486-0.716l8.159-23.309c0.012-0.031 0.022-0.063 0.032-0.096zM12.575 13.775l-7.079-3.145 15.73-5.507zM22.877 6.774l-5.507 15.73-3.145-7.079z"></path>
</svg>
