<!-- Generated by IcoMoon.io -->
<svg version="1.1" xmlns="http://www.w3.org/2000/svg" width="28" height="28" viewBox="0 0 28 28">
<title>settings</title>
<path d="M18.667 14c0-1.288-0.524-2.457-1.367-3.299s-2.011-1.367-3.299-1.367-2.457 0.524-3.299 1.367-1.367 2.011-1.367 3.299 0.524 2.457 1.367 3.299 2.011 1.367 3.299 1.367 2.457-0.524 3.299-1.367 1.367-2.011 1.367-3.299zM16.333 14c0 0.645-0.26 1.226-0.684 1.65s-1.005 0.684-1.65 0.684-1.226-0.26-1.65-0.684-0.684-1.005-0.684-1.65 0.26-1.226 0.684-1.65 1.004-0.684 1.65-0.684 1.226 0.26 1.65 0.684 0.684 1.005 0.684 1.65zM23.701 17.971c0.054-0.122 0.131-0.223 0.224-0.3 0.131-0.107 0.293-0.17 0.47-0.172h0.105c0.966 0 1.843-0.393 2.474-1.026s1.025-1.508 1.025-2.474-0.393-1.843-1.026-2.474-1.508-1.026-2.474-1.026h-0.186c-0.128-0.001-0.251-0.033-0.359-0.089-0.148-0.077-0.268-0.201-0.341-0.364-0.004-0.034-0.005-0.069-0.005-0.104-0.028-0.064-0.047-0.13-0.057-0.196 0.023-0.39 0.090-0.53 0.196-0.638l0.072-0.072c0.683-0.684 1.024-1.582 1.023-2.476s-0.343-1.792-1.028-2.476c-0.684-0.683-1.582-1.024-2.476-1.023s-1.792 0.343-2.473 1.026l-0.054 0.054c-0.097 0.093-0.213 0.159-0.336 0.194-0.163 0.045-0.34 0.037-0.511-0.038-0.118-0.051-0.218-0.128-0.295-0.222-0.107-0.131-0.17-0.293-0.171-0.47v-0.105c0-0.966-0.393-1.843-1.026-2.474s-1.509-1.025-2.475-1.025-1.843 0.393-2.474 1.025-1.026 1.508-1.026 2.474v0.185c-0.001 0.128-0.033 0.251-0.089 0.359-0.077 0.148-0.201 0.268-0.364 0.341-0.034 0.003-0.069 0.005-0.104 0.005-0.064 0.028-0.13 0.047-0.196 0.057-0.391-0.024-0.531-0.091-0.639-0.197l-0.072-0.072c-0.684-0.683-1.581-1.024-2.476-1.024s-1.791 0.343-2.476 1.029c-0.683 0.684-1.024 1.581-1.024 2.476s0.343 1.792 1.026 2.473l0.056 0.055c0.093 0.097 0.159 0.213 0.194 0.336 0.045 0.163 0.037 0.339-0.036 0.506-0.007 0.019-0.015 0.040-0.024 0.061-0.048 0.127-0.126 0.237-0.223 0.321-0.128 0.111-0.292 0.179-0.447 0.182h-0.105c-0.966 0-1.843 0.393-2.474 1.026s-1.025 1.51-1.025 2.476 0.393 1.843 1.025 2.475 1.508 1.026 2.474 1.026h0.185c0.128 0.001 0.251 0.033 0.359 0.089 0.149 0.078 0.272 0.203 0.345 0.375 0.028 0.064 0.047 0.13 0.057 0.196-0.023 0.39-0.090 0.53-0.196 0.638l-0.072 0.072c-0.683 0.684-1.024 1.582-1.023 2.476s0.343 1.792 1.028 2.476c0.684 0.683 1.582 1.024 2.476 1.023s1.792-0.343 2.473-1.025l0.055-0.056c0.097-0.093 0.213-0.159 0.336-0.194 0.163-0.046 0.34-0.037 0.506 0.036 0.019 0.007 0.040 0.015 0.061 0.024 0.127 0.048 0.237 0.126 0.321 0.223 0.111 0.128 0.178 0.292 0.182 0.447v0.107c0 0.966 0.393 1.843 1.026 2.474s1.509 1.026 2.474 1.026 1.843-0.393 2.474-1.026 1.026-1.508 1.026-2.474v-0.185c0.001-0.128 0.033-0.251 0.089-0.359 0.078-0.149 0.203-0.272 0.374-0.345 0.064-0.028 0.13-0.047 0.196-0.057 0.39 0.023 0.53 0.090 0.638 0.196l0.072 0.072c0.684 0.683 1.582 1.024 2.476 1.023s1.792-0.343 2.476-1.028c0.683-0.684 1.024-1.582 1.023-2.476s-0.343-1.792-1.026-2.473l-0.056-0.055c-0.093-0.097-0.159-0.213-0.194-0.336-0.046-0.163-0.037-0.34 0.036-0.506zM21.462 10.852c-0.014-0.235-0.044-0.346-0.089-0.446v0.093c0 0.050 0.004 0.098 0.009 0.146 0.024 0.070 0.050 0.139 0.079 0.207 0.005 0.105 0.006 0.106 0.006 0.107 0.291 0.678 0.798 1.202 1.409 1.52 0.433 0.225 0.916 0.348 1.413 0.353h0.21c0.322 0 0.612 0.13 0.825 0.342s0.342 0.503 0.342 0.825-0.13 0.613-0.342 0.825-0.503 0.342-0.825 0.342h-0.105c-0.743 0.004-1.423 0.266-1.954 0.704-0.377 0.31-0.678 0.708-0.875 1.159-0.3 0.679-0.336 1.412-0.148 2.079 0.139 0.494 0.398 0.95 0.761 1.325l0.084 0.085c0.229 0.229 0.343 0.525 0.343 0.825s-0.113 0.597-0.341 0.825c-0.23 0.23-0.526 0.344-0.827 0.344s-0.597-0.113-0.825-0.341l-0.071-0.071c-0.54-0.529-1.213-0.819-1.904-0.877-0.51-0.043-1.029 0.040-1.509 0.247-0.674 0.289-1.198 0.797-1.517 1.407-0.225 0.433-0.348 0.916-0.354 1.413v0.211c0 0.322-0.129 0.612-0.342 0.825s-0.502 0.341-0.824 0.341-0.613-0.129-0.825-0.342-0.342-0.503-0.342-0.825v-0.105c-0.017-0.77-0.297-1.449-0.751-1.974-0.331-0.383-0.754-0.683-1.234-0.868-0.671-0.288-1.392-0.32-2.049-0.135-0.493 0.139-0.95 0.398-1.325 0.761l-0.085 0.084c-0.229 0.229-0.525 0.343-0.825 0.343s-0.597-0.113-0.825-0.341c-0.23-0.23-0.344-0.526-0.344-0.827s0.113-0.597 0.341-0.825l0.071-0.071c0.529-0.54 0.819-1.213 0.877-1.904 0.043-0.51-0.040-1.029-0.247-1.509-0.289-0.674-0.797-1.198-1.407-1.517-0.433-0.225-0.916-0.348-1.413-0.353l-0.21 0.001c-0.322 0-0.613-0.13-0.825-0.342s-0.342-0.503-0.342-0.825 0.13-0.613 0.342-0.825 0.503-0.342 0.825-0.342h0.105c0.77-0.018 1.449-0.297 1.974-0.751 0.383-0.331 0.683-0.754 0.868-1.234 0.288-0.671 0.32-1.392 0.135-2.049-0.139-0.494-0.398-0.95-0.761-1.325l-0.085-0.085c-0.229-0.229-0.343-0.525-0.343-0.825s0.113-0.597 0.341-0.825c0.23-0.23 0.526-0.344 0.827-0.344s0.597 0.113 0.825 0.341l0.071 0.071c0.54 0.529 1.213 0.819 1.904 0.877 0.432 0.037 0.869-0.016 1.285-0.16 0.112-0.014 0.217-0.042 0.31-0.084-0.036 0.001-0.071 0.003-0.104 0.005-0.235 0.014-0.347 0.044-0.446 0.089h0.093c0.050 0 0.098-0.003 0.146-0.009 0.070-0.024 0.139-0.050 0.207-0.079 0.105-0.005 0.106-0.006 0.107-0.006 0.678-0.29 1.202-0.798 1.52-1.409 0.225-0.432 0.348-0.916 0.354-1.412v-0.211c0-0.322 0.13-0.613 0.342-0.825s0.503-0.342 0.825-0.342 0.613 0.13 0.825 0.342 0.342 0.503 0.342 0.825v0.105c0.004 0.743 0.266 1.423 0.703 1.954 0.31 0.377 0.708 0.678 1.162 0.876 0.674 0.298 1.407 0.334 2.074 0.146 0.493-0.139 0.95-0.398 1.325-0.761l0.085-0.084c0.229-0.229 0.525-0.343 0.825-0.343s0.597 0.113 0.825 0.341c0.23 0.23 0.344 0.526 0.344 0.827s-0.113 0.597-0.341 0.825l-0.071 0.071c-0.529 0.54-0.819 1.213-0.877 1.904-0.037 0.432 0.016 0.869 0.16 1.284 0.014 0.111 0.043 0.216 0.084 0.31-0.001-0.037-0.002-0.072-0.005-0.104z"></path>
</svg>
