<!-- Generated by IcoMoon.io -->
<svg version="1.1" xmlns="http://www.w3.org/2000/svg" width="28" height="28" viewBox="0 0 28 28">
<title>smile</title>
<path d="M26.833 14c0-3.543-1.437-6.754-3.759-9.074s-5.531-3.759-9.074-3.759-6.754 1.437-9.074 3.759-3.759 5.531-3.759 9.074 1.437 6.754 3.759 9.074 5.531 3.759 9.074 3.759 6.754-1.437 9.074-3.759 3.759-5.531 3.759-9.074zM24.5 14c0 2.9-1.174 5.523-3.075 7.425s-4.524 3.075-7.425 3.075-5.523-1.174-7.425-3.075-3.075-4.524-3.075-7.425 1.174-5.523 3.075-7.425 4.524-3.075 7.425-3.075 5.523 1.174 7.425 3.075 3.075 4.524 3.075 7.425zM8.4 17.033c0 0 0.153 0.202 0.386 0.447 0.169 0.179 0.394 0.398 0.673 0.63 0.393 0.328 0.901 0.688 1.513 0.995 0.822 0.411 1.842 0.728 3.027 0.728s2.205-0.317 3.028-0.728c0.612-0.307 1.12-0.667 1.513-0.995 0.279-0.232 0.504-0.451 0.673-0.63 0.233-0.245 0.386-0.447 0.386-0.447 0.386-0.516 0.282-1.247-0.233-1.633s-1.247-0.282-1.633 0.233c-0.048 0.058-0.211 0.24-0.211 0.24-0.117 0.123-0.276 0.279-0.476 0.446-0.284 0.237-0.64 0.489-1.062 0.7-0.56 0.279-1.225 0.481-1.985 0.481s-1.425-0.202-1.985-0.482c-0.42-0.21-0.778-0.463-1.062-0.7-0.199-0.167-0.359-0.323-0.476-0.446-0.163-0.181-0.211-0.239-0.211-0.239-0.386-0.516-1.118-0.619-1.633-0.233s-0.62 1.118-0.233 1.633zM10.5 11.667c0.644 0 1.167-0.523 1.167-1.167s-0.523-1.167-1.167-1.167-1.167 0.523-1.167 1.167 0.523 1.167 1.167 1.167zM17.5 11.667c0.644 0 1.167-0.523 1.167-1.167s-0.523-1.167-1.167-1.167-1.167 0.523-1.167 1.167 0.523 1.167 1.167 1.167z"></path>
</svg>
