<!-- Generated by IcoMoon.io -->
<svg version="1.1" xmlns="http://www.w3.org/2000/svg" width="28" height="28" viewBox="0 0 28 28">
<title>users1</title>
<path d="M21 24.5v-2.333c0-1.61-0.655-3.071-1.708-4.125s-2.515-1.708-4.125-1.708h-9.333c-1.61 0-3.071 0.654-4.125 1.708s-1.708 2.515-1.708 4.125v2.333c0 0.644 0.523 1.167 1.167 1.167s1.167-0.523 1.167-1.167v-2.333c0-0.967 0.391-1.84 1.026-2.474s1.507-1.026 2.474-1.026h9.333c0.967 0 1.84 0.391 2.475 1.026s1.026 1.507 1.026 2.474v2.333c0 0.644 0.523 1.167 1.167 1.167s1.167-0.523 1.167-1.167zM16.333 8.167c0-1.61-0.655-3.071-1.708-4.125s-2.515-1.708-4.125-1.708-3.071 0.655-4.125 1.708-1.708 2.515-1.708 4.125 0.655 3.071 1.708 4.125 2.515 1.708 4.125 1.708 3.071-0.654 4.125-1.708 1.708-2.515 1.708-4.125zM14 8.167c0 0.967-0.391 1.84-1.026 2.474s-1.507 1.026-2.474 1.026-1.84-0.391-2.474-1.026-1.026-1.507-1.026-2.474 0.391-1.84 1.026-2.474 1.507-1.025 2.474-1.025 1.84 0.391 2.474 1.025 1.026 1.507 1.026 2.474zM28 24.5v-2.333c-0.001-1.453-0.533-2.782-1.418-3.804-0.761-0.879-1.783-1.53-2.951-1.839-0.623-0.164-1.261 0.207-1.426 0.83s0.207 1.261 0.83 1.426c0.708 0.188 1.325 0.581 1.783 1.111 0.53 0.614 0.847 1.407 0.848 2.277v2.333c0 0.644 0.523 1.167 1.167 1.167s1.167-0.523 1.167-1.167zM18.377 4.782c0.937 0.24 1.686 0.834 2.143 1.607s0.619 1.715 0.379 2.652c-0.205 0.803-0.671 1.465-1.289 1.927-0.366 0.274-0.787 0.477-1.24 0.596-0.623 0.163-0.996 0.802-0.832 1.425s0.801 0.996 1.424 0.832c0.743-0.195 1.437-0.531 2.044-0.985 1.031-0.77 1.811-1.882 2.152-3.218 0.399-1.56 0.128-3.137-0.632-4.419s-2.013-2.278-3.572-2.679c-0.624-0.16-1.26 0.217-1.42 0.841s0.217 1.26 0.841 1.42z"></path>
</svg>
